<?xml version="1.0" standalone="no"?>
<!DOCTYPE svg PUBLIC "-//W3C//DTD SVG 20010904//EN"
 "http://www.w3.org/TR/2001/REC-SVG-20010904/DTD/svg10.dtd">
<svg version="1.0" xmlns="http://www.w3.org/2000/svg"
 width="260.000000pt" height="260.000000pt" viewBox="0 0 260.000000 260.000000"
 preserveAspectRatio="xMidYMid meet">
<metadata>
Created by potrace 1.11, written by Peter Selinger 2001-2013
</metadata>
<g transform="translate(0.000000,260.000000) scale(0.100000,-0.100000)"
fill="#000000" stroke="none">
<path d="M897 1903 c-13 -21 -54 -85 -91 -143 -37 -58 -122 -169 -189 -248
-67 -78 -120 -146 -117 -150 3 -4 90 -83 195 -175 104 -93 284 -265 400 -383
l210 -214 160 170 c120 128 471 459 637 599 4 4 -43 65 -104 136 -61 72 -155
196 -210 278 -54 81 -103 147 -108 147 -5 0 -65 -49 -132 -108 -68 -60 -151
-127 -185 -150 l-62 -42 -72 50 c-40 27 -125 100 -190 160 l-118 111 -24 -38z"/>
</g>
</svg>
