<?xml version="1.0" encoding="utf-8"?>
<!-- Generator: Adobe Illustrator 23.0.1, SVG Export Plug-In . SVG Version: 6.00 Build 0)  -->
<svg version="1.1" id="Layer_1" xmlns="http://www.w3.org/2000/svg" xmlns:xlink="http://www.w3.org/1999/xlink" x="0px" y="0px"
	 viewBox="0 0 603.78 436.54" style="enable-background:new 0 0 603.78 436.54;" xml:space="preserve">
<style type="text/css">
	.st0{fill:#007270;}
	.st1{fill:url(#SVGID_1_);}
</style>
<g>
	<path class="st0" d="M232.37,320.57v-1.39c0-0.13,0.04-0.26,0.13-0.41c1.89-2.57,4.01-5.51,6.34-8.83c1.66-2.42,2.49-4.35,2.49-5.8
		c0-1.09-0.32-1.97-0.95-2.63c-0.63-0.66-1.46-0.99-2.49-0.99c-1.01,0-1.82,0.33-2.43,0.99c-0.61,0.66-0.9,1.54-0.88,2.63v1.07
		c0,0.21-0.11,0.32-0.32,0.32h-1.64c-0.21,0-0.32-0.1-0.32-0.32v-1.26c0.04-1.62,0.58-2.92,1.62-3.91c1.04-0.99,2.38-1.48,4.02-1.48
		c1.68,0,3.04,0.52,4.07,1.55c1.03,1.03,1.55,2.38,1.55,4.04c0,1.85-0.86,4.04-2.59,6.56c-1.11,1.64-2.73,3.92-4.86,6.84l-0.88,1.23
		c-0.04,0.11-0.01,0.16,0.09,0.16h8.58c0.21,0,0.32,0.11,0.32,0.32v1.32c0,0.21-0.11,0.32-0.32,0.32h-11.23
		C232.47,320.89,232.37,320.79,232.37,320.57"/>
	<path class="st0" d="M258.55,305.53v10.09c0,1.68-0.52,3.02-1.56,4.02c-1.04,1-2.39,1.5-4.05,1.5c-1.58,0-2.86-0.49-3.85-1.48
		c-0.99-0.99-1.48-2.29-1.48-3.91v-0.47c0-0.21,0.1-0.32,0.32-0.32h1.61c0.21,0,0.32,0.11,0.32,0.32v0.35c0,1.05,0.29,1.9,0.88,2.55
		c0.59,0.65,1.34,0.98,2.24,0.98c0.97,0,1.77-0.33,2.4-0.99c0.63-0.66,0.94-1.55,0.94-2.67v-4.79c0-0.06-0.02-0.1-0.06-0.11
		c-0.04-0.01-0.07,0.02-0.09,0.08c-0.82,1.24-2.05,1.86-3.69,1.86c-2.27,0-3.81-1.11-4.6-3.34c-0.44-0.86-0.66-2.07-0.66-3.63
		c0-1.32,0.18-2.41,0.54-3.25c0.4-1.22,1.02-2.15,1.87-2.79c0.85-0.64,1.93-0.96,3.23-0.96c1.26,0,2.33,0.32,3.22,0.95
		c0.88,0.63,1.52,1.52,1.89,2.68C258.34,303.18,258.55,304.29,258.55,305.53 M254.95,309.99c0.55-0.47,0.91-1.12,1.1-1.94
		c0.17-0.59,0.25-1.4,0.25-2.43c0-0.92-0.06-1.68-0.19-2.27c-0.19-0.88-0.56-1.57-1.12-2.07c-0.56-0.49-1.26-0.74-2.13-0.74
		c-0.82,0-1.51,0.25-2.08,0.74c-0.57,0.49-0.96,1.21-1.17,2.16c-0.13,0.72-0.19,1.44-0.19,2.18c0,0.95,0.09,1.78,0.28,2.49
		c0.19,0.8,0.56,1.43,1.12,1.89c0.56,0.46,1.25,0.69,2.06,0.69C253.72,310.7,254.4,310.47,254.95,309.99"/>
	<path class="st0" d="M262.67,320.26c-0.36-0.36-0.54-0.8-0.54-1.32c0-0.5,0.18-0.94,0.55-1.31c0.37-0.37,0.8-0.55,1.31-0.55
		c0.48,0,0.91,0.18,1.28,0.55c0.37,0.37,0.55,0.8,0.55,1.31c0,0.53-0.18,0.97-0.54,1.32c-0.36,0.36-0.79,0.54-1.29,0.54
		C263.47,320.8,263.03,320.62,262.67,320.26"/>
	<path class="st0" d="M270.96,319.57c-1.09-1.09-1.64-2.55-1.64-4.38v-10.66c0-1.81,0.55-3.26,1.64-4.35
		c1.09-1.09,2.55-1.64,4.35-1.64c1.83,0,3.3,0.55,4.4,1.64c1.1,1.09,1.66,2.55,1.66,4.35v10.66c0,1.83-0.55,3.29-1.66,4.38
		c-1.1,1.09-2.57,1.64-4.4,1.64C273.5,321.21,272.05,320.66,270.96,319.57 M278.09,318.18c0.69-0.71,1.04-1.66,1.04-2.84v-10.94
		c0-1.18-0.35-2.12-1.04-2.84c-0.69-0.71-1.62-1.07-2.78-1.07c-1.11,0-2.02,0.36-2.71,1.07c-0.69,0.72-1.04,1.66-1.04,2.84v10.94
		c0,1.16,0.35,2.1,1.04,2.82c0.69,0.73,1.6,1.09,2.71,1.09C276.47,319.25,277.39,318.89,278.09,318.18"/>
	<path class="st0" d="M296.44,314.14c0,1.32-0.18,2.41-0.54,3.25c-0.4,1.22-1.02,2.15-1.88,2.79c-0.85,0.64-1.93,0.96-3.23,0.96
		c-1.26,0-2.33-0.32-3.22-0.95s-1.51-1.52-1.89-2.68c-0.4-0.99-0.6-2.1-0.6-3.34v-10.09c0-1.68,0.52-3.02,1.56-4.02
		c1.04-1,2.39-1.5,4.05-1.5c1.58,0,2.86,0.49,3.85,1.48s1.48,2.29,1.48,3.91v0.47c0,0.21-0.11,0.32-0.32,0.32h-1.61
		c-0.21,0-0.32-0.11-0.32-0.32v-0.35c0-1.05-0.29-1.9-0.88-2.55c-0.59-0.65-1.34-0.98-2.24-0.98c-0.97,0-1.77,0.33-2.4,0.99
		c-0.63,0.66-0.95,1.55-0.95,2.67V309c0,0.06,0.02,0.1,0.06,0.11c0.04,0.01,0.07-0.02,0.09-0.08c0.82-1.24,2.05-1.86,3.69-1.86
		c2.27,0,3.81,1.11,4.6,3.34C296.22,311.38,296.44,312.58,296.44,314.14 M294.2,314.08c0-0.95-0.09-1.78-0.28-2.49
		c-0.19-0.8-0.56-1.43-1.12-1.89c-0.56-0.46-1.25-0.69-2.07-0.69c-0.82,0-1.5,0.24-2.05,0.71c-0.55,0.47-0.91,1.12-1.1,1.94
		c-0.17,0.59-0.25,1.4-0.25,2.43c0,0.9,0.06,1.66,0.19,2.27c0.19,0.88,0.56,1.57,1.12,2.07c0.56,0.49,1.27,0.74,2.13,0.74
		c0.82,0,1.51-0.25,2.08-0.74c0.57-0.49,0.96-1.21,1.17-2.16C294.14,315.54,294.2,314.81,294.2,314.08"/>
	<path class="st0" d="M300.16,320.26c-0.36-0.36-0.54-0.8-0.54-1.32c0-0.5,0.18-0.94,0.55-1.31c0.37-0.37,0.8-0.55,1.31-0.55
		c0.48,0,0.91,0.18,1.28,0.55c0.37,0.37,0.55,0.8,0.55,1.31c0,0.53-0.18,0.97-0.54,1.32c-0.36,0.36-0.79,0.54-1.29,0.54
		C300.96,320.8,300.52,320.62,300.16,320.26"/>
	<path class="st0" d="M307.02,320.57v-1.39c0-0.13,0.04-0.26,0.13-0.41c1.89-2.57,4.01-5.51,6.34-8.83c1.66-2.42,2.49-4.35,2.49-5.8
		c0-1.09-0.32-1.97-0.95-2.63c-0.63-0.66-1.46-0.99-2.49-0.99c-1.01,0-1.82,0.33-2.43,0.99c-0.61,0.66-0.9,1.54-0.88,2.63v1.07
		c0,0.21-0.11,0.32-0.32,0.32h-1.64c-0.21,0-0.32-0.1-0.32-0.32v-1.26c0.04-1.62,0.58-2.92,1.62-3.91c1.04-0.99,2.38-1.48,4.02-1.48
		c1.68,0,3.04,0.52,4.07,1.55c1.03,1.03,1.55,2.38,1.55,4.04c0,1.85-0.86,4.04-2.59,6.56c-1.11,1.64-2.73,3.92-4.86,6.84l-0.88,1.23
		c-0.04,0.11-0.01,0.16,0.09,0.16h8.58c0.21,0,0.32,0.11,0.32,0.32v1.32c0,0.21-0.11,0.32-0.32,0.32h-11.23
		C307.12,320.89,307.02,320.79,307.02,320.57"/>
	<path class="st0" d="M323.62,319.57c-1.09-1.09-1.64-2.55-1.64-4.38v-10.66c0-1.81,0.55-3.26,1.64-4.35
		c1.09-1.09,2.55-1.64,4.35-1.64c1.83,0,3.3,0.55,4.4,1.64c1.1,1.09,1.66,2.55,1.66,4.35v10.66c0,1.83-0.55,3.29-1.66,4.38
		c-1.1,1.09-2.57,1.64-4.4,1.64C326.16,321.21,324.71,320.66,323.62,319.57 M330.75,318.18c0.69-0.71,1.04-1.66,1.04-2.84v-10.94
		c0-1.18-0.35-2.12-1.04-2.84c-0.69-0.71-1.62-1.07-2.78-1.07c-1.11,0-2.02,0.36-2.71,1.07c-0.69,0.72-1.04,1.66-1.04,2.84v10.94
		c0,1.16,0.35,2.1,1.04,2.82c0.69,0.73,1.6,1.09,2.71,1.09C329.13,319.25,330.05,318.89,330.75,318.18"/>
	<path class="st0" d="M341.08,298.81h1.7c0.21,0,0.32,0.11,0.32,0.32v21.45c0,0.21-0.11,0.32-0.32,0.32h-1.61
		c-0.21,0-0.32-0.1-0.32-0.32v-19.33c0-0.04-0.01-0.07-0.05-0.09c-0.03-0.02-0.07-0.02-0.11,0l-3.03,1.29l-0.13,0.03
		c-0.17,0-0.25-0.09-0.25-0.28v-1.14c0-0.15,0.07-0.27,0.22-0.38l3.15-1.77C340.77,298.84,340.91,298.81,341.08,298.81"/>
	<path class="st0" d="M358.25,305.53v10.09c0,1.68-0.52,3.02-1.56,4.02c-1.04,1-2.39,1.5-4.05,1.5c-1.58,0-2.86-0.49-3.85-1.48
		c-0.99-0.99-1.48-2.29-1.48-3.91v-0.47c0-0.21,0.1-0.32,0.32-0.32h1.61c0.21,0,0.32,0.11,0.32,0.32v0.35c0,1.05,0.29,1.9,0.88,2.55
		c0.59,0.65,1.34,0.98,2.24,0.98c0.97,0,1.77-0.33,2.4-0.99c0.63-0.66,0.94-1.55,0.94-2.67v-4.79c0-0.06-0.02-0.1-0.06-0.11
		c-0.04-0.01-0.07,0.02-0.09,0.08c-0.82,1.24-2.05,1.86-3.69,1.86c-2.27,0-3.81-1.11-4.6-3.34c-0.44-0.86-0.66-2.07-0.66-3.63
		c0-1.32,0.18-2.41,0.54-3.25c0.4-1.22,1.02-2.15,1.88-2.79c0.85-0.64,1.93-0.96,3.23-0.96c1.26,0,2.33,0.32,3.22,0.95
		c0.88,0.63,1.52,1.52,1.89,2.68C358.05,303.18,358.25,304.29,358.25,305.53 M354.65,309.99c0.55-0.47,0.91-1.12,1.1-1.94
		c0.17-0.59,0.25-1.4,0.25-2.43c0-0.92-0.06-1.68-0.19-2.27c-0.19-0.88-0.56-1.57-1.12-2.07c-0.56-0.49-1.26-0.74-2.13-0.74
		c-0.82,0-1.51,0.25-2.08,0.74c-0.57,0.49-0.96,1.21-1.17,2.16c-0.13,0.72-0.19,1.44-0.19,2.18c0,0.95,0.09,1.78,0.28,2.49
		c0.19,0.8,0.56,1.43,1.12,1.89c0.56,0.46,1.25,0.69,2.06,0.69C353.42,310.7,354.1,310.47,354.65,309.99"/>
</g>
<path class="st0" d="M265.88,216.17c-3.45,3.14-8.81,5.81-16.07,8.01c1.4,2.32,2.11,4.94,2.11,7.87c0,3.97-1.28,7.87-3.85,11.72
	c-2.56,3.85-6.49,7.02-11.76,9.52c-5.28,2.5-11.7,3.75-19.27,3.75c-8.79,0-15.99-1.75-21.6-5.26c-5.62-3.51-8.42-8.62-8.42-15.33
	c0-6.23,2.49-11.61,7.46-16.16c4.97-4.55,11.79-7.61,20.46-9.2c-3.11-0.85-5.42-2.07-6.91-3.66c-1.5-1.59-2.24-3.39-2.24-5.4
	c0-3.36,1.74-5.95,5.22-7.78c3.48-1.83,7.63-2.75,12.45-2.75c3.97,0,6.91,0.63,8.83,1.88c1.92,1.25,2.88,2.95,2.88,5.08
	c0,1.95-0.69,3.45-2.06,4.49c-1.37,1.04-2.88,1.56-4.53,1.56l-0.09-1.65c1.28,0,2.37-0.4,3.25-1.19c0.88-0.79,1.33-1.77,1.33-2.93
	c0-1.1-0.44-1.97-1.33-2.61c-0.89-0.64-2.12-0.96-3.71-0.96c-2.01,0-3.95,0.54-5.81,1.6c-1.86,1.07-3.37,2.56-4.53,4.49
	c-1.16,1.92-1.74,4.11-1.74,6.55c0,0.92,0.09,1.83,0.28,2.75c2.2-0.37,4.12-0.55,5.77-0.55c2.2,0,3.3,0.64,3.3,1.92
	c0,0.61-0.27,1.08-0.82,1.42c-0.55,0.34-1.22,0.5-2.01,0.5c-1.53,0-3.63-0.67-6.32-2.01c-2.69,1.22-4.93,3.68-6.73,7.37
	c-1.8,3.69-2.7,7.74-2.7,12.13c0,5.62,1.63,9.87,4.9,12.77c3.26,2.9,8.04,4.35,14.33,4.35c4.09,0,7.97-0.6,11.63-1.79
	c3.66-1.19,6.65-3.07,8.97-5.63c2.32-2.56,3.48-5.77,3.48-9.61c0-2.62-0.58-4.88-1.74-6.77l-9.61,2.93c-2.2,0.61-5.43,1.59-9.7,2.93
	c-2.75,0.79-4.74,1.76-6,2.88c-1.25,1.13-1.88,2.49-1.88,4.07c0,1.59,0.55,2.72,1.65,3.39c1.1,0.67,2.44,1.01,4.03,1.01
	c2.38,0,4.43-0.61,6.13-1.83c1.71-1.22,2.9-2.56,3.57-4.03l1.56,0.64c-0.79,1.83-2.2,3.48-4.21,4.94c-2.01,1.46-4.49,2.2-7.42,2.2
	c-3.17,0-5.92-0.94-8.24-2.84c-2.32-1.89-3.48-4.73-3.48-8.51c0-3.84,1.37-7.22,4.12-10.12c2.75-2.9,6.9-5.17,12.45-6.82l24.26-7.32
	c2.75-0.85,4.87-1.57,6.36-2.15s2.85-1.48,4.07-2.7c1.22-1.22,1.83-2.78,1.83-4.67c0-2.32-0.87-4.13-2.61-5.45
	c-1.74-1.31-3.89-1.97-6.45-1.97c-0.98,0-1.8,0.12-2.47,0.37c3.54,1.34,5.31,3.54,5.31,6.59c0,2.32-0.98,4.16-2.93,5.54
	c-1.95,1.37-4.18,2.06-6.68,2.06c-2.44,0-4.44-0.67-6-2.01c-1.56-1.34-2.33-3.05-2.33-5.13c0-1.83,0.58-3.39,1.74-4.67
	c1.16-1.28,2.71-2.29,4.67-3.02c2.07-0.85,4.73-1.28,7.96-1.28c8.73,0,13.09,4.46,13.09,13.37
	C271.05,208.65,269.33,213.03,265.88,216.17"/>
<g>
	<path class="st0" d="M199.54,141.29h-1.57c0.31-1.52,0.47-2.96,0.47-4.32c0-3.19-1-5.68-2.98-7.46c-1.99-1.78-4.76-2.67-8.32-2.67
		c-2.46,0-4.49,0.62-6.08,1.85c-1.6,1.23-2.4,3.15-2.4,5.77c0,2.3,0.67,4.51,2,6.63c1.33,2.12,3.39,4.8,6.16,8.05
		c2.04,2.36,3.68,4.36,4.91,6.01c1.23,1.65,2.28,3.45,3.14,5.42c0.86,1.96,1.3,3.99,1.3,6.09c0,3.56-1.22,6.53-3.65,8.91
		c-2.43,2.38-5.42,4.14-8.95,5.26c-3.53,1.13-6.95,1.69-10.25,1.69c-3.82,0-6.71-0.26-8.68-0.79c-1.96-0.52-4.15-1.46-6.56-2.83
		c-1.36-0.79-2.25-1.18-2.67-1.18c-0.68,0-1.23,0.27-1.65,0.82c-0.42,0.55-0.99,1.69-1.73,3.42h-1.57c0.84-1.99,1.66-4.38,2.47-7.18
		c0.81-2.8,1.77-6.69,2.87-11.66h1.57c-0.47,1.31-0.71,3.11-0.71,5.42c0,4.03,1.11,7.07,3.34,9.11c2.22,2.04,5.38,3.06,9.46,3.06
		c3.4,0,5.78-0.64,7.15-1.92c1.36-1.28,2.04-3.05,2.04-5.3c0-2.98-0.67-5.7-2-8.17c-1.33-2.46-3.34-5.34-6.01-8.64
		c-2.57-3.19-4.5-5.97-5.81-8.32c-1.31-2.36-1.96-4.92-1.96-7.69c0-3.45,1.06-6.39,3.18-8.79c2.12-2.41,4.76-4.2,7.93-5.38
		c3.17-1.18,6.35-1.77,9.54-1.77c2.25,0,4.27,0.21,6.05,0.63c1.78,0.42,3.08,0.8,3.89,1.14c0.81,0.34,2.13,0.96,3.97,1.85
		c0.26,0.11,0.69,0.31,1.3,0.63c0.6,0.31,1.03,0.47,1.29,0.47c0.42,0,0.82-0.33,1.22-0.98c0.39-0.65,0.85-1.71,1.37-3.18h1.57
		C202.19,130.3,200.64,135.64,199.54,141.29"/>
	<path class="st0" d="M244.79,168.3h1.49l-2.2,6.12c-0.99,2.78-2.49,4.82-4.47,6.12c-1.99,1.31-4.24,1.96-6.75,1.96
		c-3.45,0-5.78-1.02-6.99-3.06c-0.63-1.1-0.94-2.36-0.94-3.77c0-1.26,0.21-2.64,0.63-4.16l1.81-6.83
		c-1.99,4.82-3.91,8.51-5.77,11.07c-1.86,2.57-3.74,4.33-5.65,5.3c-1.91,0.97-4.1,1.45-6.56,1.45c-2.36,0-4.18-0.55-5.46-1.65
		c-1.28-1.1-1.92-2.72-1.92-4.87c0-1.57,0.34-3.35,1.02-5.34l7.62-23.32c0.26-0.89,0.39-1.52,0.39-1.88c0-0.94-0.44-1.41-1.33-1.41
		c-1.52,0-2.91,1.65-4.16,4.95l-1.65,4.4h-1.49l1.96-5.73c1.89-5.39,5.63-8.09,11.23-8.09c2.67,0,4.72,0.62,6.16,1.85
		c1.44,1.23,2.16,3.08,2.16,5.54c0,1.73-0.39,3.77-1.18,6.12l-6.75,20.34c-0.42,1.2-0.63,2.23-0.63,3.06c0,0.79,0.26,1.18,0.79,1.18
		c1.26,0,2.87-1.58,4.83-4.75c1.96-3.17,3.99-7.3,6.09-12.41c2.09-5.1,3.95-10.38,5.57-15.82l1.02-4c5.7-0.1,10.44-0.47,14.21-1.1
		l-9.89,35.18c-0.31,0.99-0.47,1.75-0.47,2.28c0,0.68,0.39,1.02,1.18,1.02c0.84,0,1.6-0.37,2.28-1.1c0.68-0.73,1.36-2.01,2.04-3.85
		L244.79,168.3z"/>
	<path class="st0" d="M258.04,180.86c1.62,0,2.97-0.54,4.04-1.61c1.07-1.07,1.61-2.52,1.61-4.36c0-1.67-0.39-3.44-1.18-5.3
		c-0.79-1.86-1.91-3.99-3.38-6.4c-1.73-2.77-2.94-4.95-3.65-6.52c-0.71-1.57-1.06-3.32-1.06-5.26c0-3.51,1.33-6.36,4-8.56
		c2.67-2.2,6.54-3.3,11.62-3.3c3.87,0,7.09,0.69,9.66,2.08c2.56,1.39,3.85,3.7,3.85,6.95c0,1.78-0.5,3.39-1.49,4.83
		c-0.99,1.44-2.36,2.16-4.08,2.16c-1.57,0-2.8-0.61-3.69-1.85c-0.89-1.23-1.33-2.81-1.33-4.75c0-1.52,0.25-2.94,0.75-4.28
		c0.5-1.33,1.09-2.37,1.77-3.1c-0.42-0.21-1.07-0.31-1.96-0.31c-1.83,0-3.22,0.54-4.16,1.61c-0.94,1.07-1.41,2.63-1.41,4.67
		c0,1.31,0.29,2.58,0.86,3.81c0.58,1.23,1.52,2.94,2.83,5.14l0.94,1.57c1.73,2.98,2.94,5.41,3.65,7.26
		c0.71,1.86,1.06,3.65,1.06,5.38c0,2.2-0.6,4.19-1.81,5.97c-1.2,1.78-2.98,3.19-5.34,4.24s-5.21,1.57-8.56,1.57
		c-4.24,0-7.72-0.77-10.44-2.32c-2.72-1.54-4.08-4.12-4.08-7.73c0-1.99,0.48-3.65,1.45-4.99c0.97-1.33,2.26-2,3.89-2
		c1.52,0,2.75,0.63,3.69,1.88c0.94,1.26,1.41,2.93,1.41,5.03c0,1.47-0.2,2.78-0.59,3.93c-0.39,1.15-0.93,2.49-1.61,4
		C256.07,180.68,256.99,180.86,258.04,180.86"/>
	<path class="st0" d="M323.85,168.69h1.49l-1.96,5.73c-1.88,5.39-5.63,8.09-11.23,8.09c-3.19,0-5.47-0.92-6.83-2.75
		c-0.89-1.31-1.33-2.91-1.33-4.79c0-0.58,0.03-1.02,0.08-1.33c-1.26,3.19-2.88,5.47-4.87,6.83c-1.99,1.36-4.35,2.04-7.07,2.04
		c-3.25,0-5.68-0.84-7.3-2.51c-1.62-1.67-2.43-4.11-2.43-7.3c0-4.92,1.32-9.97,3.97-15.15c2.64-5.18,5.94-9.47,9.89-12.88
		c3.95-3.4,7.73-5.1,11.35-5.1c2.98,0,4.6,1.49,4.87,4.48l1.02-3.3c5.08-0.05,9.81-0.44,14.21-1.18l-10.6,35.18
		c-0.21,0.68-0.31,1.31-0.31,1.88c0,0.94,0.42,1.41,1.26,1.41c1.52,0,2.91-1.65,4.16-4.95L323.85,168.69z M302.26,174.66
		c1.1-1.67,2.36-4.68,3.77-9.03l5.65-18.84c0.05-0.26,0.08-0.65,0.08-1.18c0-1.46-0.5-2.2-1.49-2.2c-1.47,0-3.26,1.52-5.38,4.55
		c-2.12,3.04-3.94,6.86-5.46,11.46c-1.52,4.61-2.28,9.13-2.28,13.58c0,1.52,0.13,2.59,0.39,3.22c0.26,0.63,0.73,0.94,1.41,0.94
		C300.06,177.17,301.16,176.34,302.26,174.66"/>
	<path class="st0" d="M372,168.69h1.49l-1.96,5.73c-1.88,5.39-5.63,8.09-11.23,8.09c-3.35,0-5.71-0.94-7.07-2.83
		c-0.89-1.2-1.34-2.67-1.34-4.4c0-1.67,0.42-3.77,1.26-6.28l6.75-20.34c0.42-1.2,0.63-2.22,0.63-3.06c0-0.79-0.26-1.18-0.79-1.18
		c-1.36,0-3.11,1.83-5.26,5.5c-2.15,3.66-4.33,8.35-6.56,14.05c-2.22,5.71-4.1,11.44-5.61,17.2v-0.16l-0.08,0.39h-13.9l9.58-34.08
		c0.31-1.05,0.47-1.81,0.47-2.28c0-0.68-0.39-1.02-1.18-1.02c-0.84,0-1.6,0.37-2.28,1.1c-0.68,0.73-1.36,2.02-2.04,3.85l-1.81,4.79
		h-1.49l2.2-6.12c0.99-2.77,2.36-4.82,4.08-6.12c1.73-1.31,3.95-1.96,6.67-1.96c2.93,0,5.04,0.68,6.32,2.04
		c1.28,1.36,1.92,3.14,1.92,5.34c0,1.2-0.16,2.41-0.47,3.61l-2.12,8.17c2.04-5.13,3.99-9.07,5.85-11.82
		c1.86-2.75,3.76-4.66,5.69-5.73c1.94-1.07,4.13-1.61,6.6-1.61c5.13,0,7.69,2.17,7.69,6.52c0,1.41-0.34,3.19-1.02,5.34l-7.77,23.32
		c-0.26,0.89-0.39,1.52-0.39,1.88c0,0.94,0.44,1.41,1.33,1.41c1.52,0,2.91-1.65,4.16-4.95L372,168.69z"/>
	<path class="st0" d="M420.09,168.69h1.49l-1.96,5.73c-1.88,5.39-5.63,8.09-11.23,8.09c-3.35,0-5.71-0.94-7.07-2.83
		c-0.89-1.2-1.34-2.67-1.34-4.4c0-1.67,0.42-3.77,1.26-6.28l6.75-20.34c0.42-1.2,0.63-2.22,0.63-3.06c0-0.79-0.26-1.18-0.79-1.18
		c-1.36,0-3.11,1.83-5.26,5.5c-2.15,3.66-4.33,8.35-6.56,14.05c-2.22,5.71-4.1,11.44-5.61,17.2v-0.16l-0.08,0.39h-13.9l9.58-34.08
		c0.31-1.05,0.47-1.81,0.47-2.28c0-0.68-0.39-1.02-1.18-1.02c-0.84,0-1.6,0.37-2.28,1.1c-0.68,0.73-1.36,2.02-2.04,3.85l-1.81,4.79
		h-1.49l2.2-6.12c0.99-2.77,2.36-4.82,4.08-6.12c1.73-1.31,3.95-1.96,6.67-1.96c2.93,0,5.04,0.68,6.32,2.04
		c1.28,1.36,1.92,3.14,1.92,5.34c0,1.2-0.16,2.41-0.47,3.61l-2.12,8.17c2.04-5.13,3.99-9.07,5.85-11.82
		c1.86-2.75,3.76-4.66,5.69-5.73c1.94-1.07,4.13-1.61,6.6-1.61c5.13,0,7.69,2.17,7.69,6.52c0,1.41-0.34,3.19-1.02,5.34l-7.77,23.32
		c-0.26,0.89-0.39,1.52-0.39,1.88c0,0.94,0.44,1.41,1.33,1.41c1.52,0,2.91-1.65,4.16-4.95L420.09,168.69z"/>
</g>
<g>
	<path class="st0" d="M307,226.77c-1.31,3.45-2.3,6.54-2.98,9.27c-0.31,1.15-0.66,2.78-1.02,4.87h-1.73
		c0.05-4.5-0.71-7.68-2.28-9.54c-1.57-1.86-3.98-2.79-7.22-2.79h-0.24c-1.83,0-3.21,0.14-4.12,0.43c-0.92,0.29-1.64,0.88-2.16,1.77
		c-0.52,0.89-1.05,2.33-1.57,4.32l-4.95,18.53h1.41c2.46,0,4.71-0.86,6.75-2.59c2.04-1.73,3.53-3.79,4.48-6.2h1.73
		c-0.84,2.57-1.55,5.05-2.12,7.46l-0.55,2.12c-0.37,1.41-0.71,2.83-1.02,4.24c-0.31,1.41-0.66,3.19-1.02,5.34h-1.73
		c0-2.25-0.6-4.28-1.81-6.09c-1.2-1.81-3.14-2.71-5.81-2.71h-0.71l-5.03,18.84c-0.47,1.99-0.71,3.27-0.71,3.85
		c0,1.1,0.38,1.82,1.14,2.16c0.76,0.34,2.11,0.51,4.04,0.51h1.02c3.77,0,6.95-1.03,9.54-3.1c2.59-2.07,5.14-5.67,7.66-10.8h1.73
		c-0.42,1.15-0.97,3.04-1.65,5.65c-0.89,3.09-1.57,6.44-2.04,10.05c-3.56-0.16-9.47-0.24-17.74-0.24c-12.14,0-21.25,0.08-27.32,0.24
		l0.31-1.57c1.88-0.1,3.3-0.31,4.24-0.63c0.94-0.31,1.69-0.92,2.24-1.81c0.55-0.89,1.09-2.33,1.61-4.32l10.36-38.94
		c0.42-1.78,0.63-3.04,0.63-3.77c0-1.15-0.38-1.91-1.14-2.28c-0.76-0.37-2.13-0.6-4.12-0.71l0.39-1.57
		c6.02,0.16,15.1,0.24,27.25,0.24C298.28,227.01,303.7,226.93,307,226.77"/>
	<path class="st0" d="M340.06,242.68c1.36,1.44,2.04,3.26,2.04,5.46c0,2.67-0.84,4.97-2.51,6.91c-1.68,1.94-3.8,2.91-6.36,2.91
		c-1.94,0-3.4-0.5-4.4-1.49c-0.99-0.99-1.49-2.46-1.49-4.4c0-2.3,0.84-4.4,2.51-6.28c1.68-1.88,3.69-3.04,6.05-3.45
		c-0.63-0.16-0.99-0.24-1.1-0.24c-1.68,0-3.19,0.34-4.56,1.02c-1.36,0.68-2.87,2.36-4.51,5.03c-1.65,2.67-3.39,6.75-5.22,12.25
		l-5.73,21.98h-13.9l9.58-34.08c0.21-0.79,0.32-1.46,0.32-2.04c0-0.84-0.34-1.26-1.02-1.26c-0.84,0-1.6,0.37-2.28,1.1
		c-0.68,0.73-1.36,2.02-2.04,3.85l-1.8,4.79h-1.49l2.2-6.12c1.94-5.39,5.84-8.09,11.7-8.09c2.51,0,4.34,0.68,5.5,2.04
		c1.15,1.36,1.73,3.11,1.73,5.26c0,0.73-0.03,1.28-0.08,1.65c1.52-3.3,3.15-5.61,4.91-6.95c1.75-1.33,3.89-2,6.4-2
		C336.84,240.52,338.69,241.24,340.06,242.68"/>
	<path class="st0" d="M351.83,246.33c0-0.89-0.37-1.33-1.1-1.33c-0.84,0-1.6,0.37-2.28,1.1c-0.68,0.73-1.36,2.02-2.04,3.85
		l-1.81,4.79h-1.49l2.2-6.12c1.94-5.39,5.84-8.09,11.7-8.09c2.83,0,4.89,0.68,6.2,2.04c1.31,1.36,1.96,3.09,1.96,5.18
		c0,1.15-0.21,2.41-0.63,3.77l-8.17,24.18c-0.26,0.89-0.39,1.52-0.39,1.88c0,0.94,0.44,1.41,1.33,1.41c1.52,0,2.91-1.65,4.16-4.95
		l1.65-4.4h1.49l-1.96,5.73c-1.89,5.39-5.63,8.09-11.23,8.09c-2.67,0-4.74-0.63-6.2-1.88c-1.47-1.26-2.2-3.11-2.2-5.57
		c0-1.67,0.39-3.69,1.18-6.05l7.22-21.67C351.7,247.61,351.83,246.95,351.83,246.33 M357.37,223.08c1.75-1.41,4.07-2.12,6.95-2.12
		c2.3,0,4.04,0.45,5.22,1.33c1.18,0.89,1.77,2.23,1.77,4c0,2.41-0.92,4.37-2.75,5.89c-1.83,1.52-4.14,2.28-6.91,2.28
		c-2.25,0-3.97-0.44-5.14-1.33c-1.18-0.89-1.77-2.17-1.77-3.85C354.74,226.57,355.61,224.5,357.37,223.08"/>
	<path class="st0" d="M399.56,246.64c1.33-1.52,3-2.72,4.99-3.61c-0.21-0.31-0.5-0.56-0.86-0.75c-0.37-0.18-0.73-0.27-1.1-0.27
		c-1.41,0-2.62,0.42-3.61,1.26c-0.68,0.58-1.24,1.32-1.69,2.24c-0.45,0.92-0.98,2.24-1.61,3.97c-0.99,2.83-2,5.05-3.02,6.67
		c-1.02,1.62-2.58,2.72-4.67,3.3c9.58,0.11,14.37,3.06,14.37,8.87c0,0.99-0.11,1.94-0.31,2.83l-0.94,4.55
		c-0.16,0.68-0.24,1.26-0.24,1.73c0,1.05,0.39,1.57,1.18,1.57c1.52,0,2.91-1.65,4.16-4.95l1.65-4.4h1.49l-1.96,5.73
		c-1.99,5.39-6.18,8.09-12.56,8.09c-2.57,0-4.48-0.59-5.73-1.77c-1.26-1.18-1.88-2.87-1.88-5.06c0-0.89,0.13-1.99,0.39-3.3
		l1.33-5.57c0.37-1.26,0.55-2.38,0.55-3.38c0-1.15-0.3-2.05-0.9-2.71c-0.6-0.65-1.56-1.14-2.87-1.45l-6.52,22.14h-13.9l15.55-52.37
		c0.26-0.94,0.39-1.67,0.39-2.2c0-1.05-0.41-1.81-1.22-2.28c-0.81-0.47-2.19-0.71-4.12-0.71l0.55-1.65
		c4.13-0.05,7.88-0.34,11.23-0.86c3.35-0.52,6.62-1.31,9.81-2.36l-11.39,38.79c1.62-0.37,2.96-1.03,4-2
		c1.05-0.97,1.85-2.03,2.39-3.18c0.55-1.15,1.14-2.67,1.77-4.55c0.58-1.67,1.11-3.04,1.61-4.08c0.5-1.05,1.14-1.91,1.92-2.59
		c0.73-0.63,1.56-1.09,2.47-1.37c0.92-0.29,1.77-0.43,2.55-0.43c2.88,0,5.1,0.85,6.67,2.55c1.57,1.7,2.36,3.84,2.36,6.4
		c0,2.46-0.75,4.4-2.24,5.81c-1.49,1.41-3.39,2.12-5.69,2.12c-1.99,0-3.55-0.51-4.67-1.53c-1.13-1.02-1.69-2.32-1.69-3.89
		C397.55,249.94,398.22,248.16,399.56,246.64"/>
</g>
<linearGradient id="SVGID_1_" gradientUnits="userSpaceOnUse" x1="110.974" y1="78.3029" x2="477.2318" y2="289.7619">
	<stop  offset="0.0489" style="stop-color:#DEA5B6"/>
	<stop  offset="0.9083" style="stop-color:#94535D"/>
</linearGradient>
<path class="st1" d="M401.22,306.73L538.41,183.8l-67.05-78.36l-57.81-86.6l-71.17,62.81L294.42,114l-48.93-33.26l-69.73-64.75
	l-53.78,84.52l-71.86,83.21l133.22,118.62L294.6,418.47L401.22,306.73z M290.87,404.09l3.5-3.09l3.38,3.01l-3.48,3.48L290.87,404.09
	z M297.78,403.98l-3.3-3.08l54.69-48.25L297.78,403.98z M524.53,187.67l-83.31,77.13l79.18-82.98L524.53,187.67z M520.63,181.59
	l3.32-3.48l4.62,5.82l-4.02,3.72L520.63,181.59z M523.93,178.1l-3.38,3.38l-26.74-41.33L523.93,178.1z M444.3,74.05l-33.13-38.46
	l3.9-2.94L444.3,74.05z M415.05,32.63l-4.07,2.75l-3.52-4.08l4.17-3.5L415.05,32.63z M407.44,31.32l3.33,4.2l-42.56,28.71
	L407.44,31.32z M294.58,125.54l14.15-12.67l-14.3,15.27l29.27-26.56l87.26-65.82l57.15,72.02l52.21,73.94L385.11,316.76
	l-90.75,84.02l-99.4-92.79L70.03,182.82l60.05-86.57l48.4-60.7l84.83,64.49l31.11,28.1l-15.62-15.56L294.58,125.54z M178.66,35.33
	l3.01-3.77l36.55,30.66L178.66,35.33z M177.43,28l4.16,3.49l-3.17,3.68l-4.05-2.75L177.43,28z M174.36,32.42l3.88,2.95l-30.07,34.82
	L174.36,32.42z M69.83,182.62l-4.79-4.8l38.49-48.27L69.83,182.62z M69.73,182.77l-3.31,5.22l-5.44-5.08l4.05-5.08L69.73,182.77z
	 M66.43,188.01l3.49-5.03l69.71,73.37L66.43,188.01z M294.24,400.89l-3.41,3.16l-54.61-54.72L294.24,400.89z"/>
</svg>
