<svg id="Layer_1" xmlns="http://www.w3.org/2000/svg" viewBox="-10 0 603.78 436.54">
    <path fill="#007270" d="M232.37 320.57v-1.39c0-.13.04-.26.13-.41 1.89-2.57 4.01-5.51 6.34-8.83 1.66-2.42 2.49-4.35 2.49-5.8 0-1.09-.32-1.97-.95-2.63-.63-.66-1.46-.99-2.49-.99-1.01 0-1.82.33-2.43.99-.61.66-.9 1.54-.88 2.63v1.07c0 .21-.11.32-.32.32h-1.64c-.21 0-.32-.1-.32-.32v-1.26c.04-1.62.58-2.92 1.62-3.91 1.04-.99 2.38-1.48 4.02-1.48 1.68 0 3.04.52 4.07 1.55 1.03 1.03 1.55 2.38 1.55 4.04 0 1.85-.86 4.04-2.59 6.56-1.11 1.64-2.73 3.92-4.86 6.84l-.88 1.23c-.04.11-.01.16.09.16h8.58c.21 0 .32.11.32.32v1.32c0 .21-.11.32-.32.32h-11.23c-.2-.01-.3-.11-.3-.33m26.18-15.04v10.09c0 1.68-.52 3.02-1.56 4.02-1.04 1-2.39 1.5-4.05 1.5-1.58 0-2.86-.49-3.85-1.48-.99-.99-1.48-2.29-1.48-3.91v-.47c0-.21.1-.32.32-.32h1.61c.21 0 .32.11.32.32v.35c0 1.05.29 1.9.88 2.55.59.65 1.34.98 2.24.98.97 0 1.77-.33 2.4-.99.63-.66.94-1.55.94-2.67v-4.79c0-.06-.02-.1-.06-.11-.04-.01-.07.02-.09.08-.82 1.24-2.05 1.86-3.69 1.86-2.27 0-3.81-1.11-4.6-3.34-.44-.86-.66-2.07-.66-3.63 0-1.32.18-2.41.54-3.25.4-1.22 1.02-2.15 1.87-2.79.85-.64 1.93-.96 3.23-.96 1.26 0 2.33.32 3.22.95.88.63 1.52 1.52 1.89 2.68.37.98.58 2.09.58 3.33m-3.6 4.46c.55-.47.91-1.12 1.1-1.94.17-.59.25-1.4.25-2.43 0-.92-.06-1.68-.19-2.27-.19-.88-.56-1.57-1.12-2.07-.56-.49-1.26-.74-2.13-.74-.82 0-1.51.25-2.08.74-.57.49-.96 1.21-1.17 2.16-.13.72-.19 1.44-.19 2.18 0 .95.09 1.78.28 2.49.19.8.56 1.43 1.12 1.89.56.46 1.25.69 2.06.69.84.01 1.52-.22 2.07-.7m7.72 10.27c-.36-.36-.54-.8-.54-1.32 0-.5.18-.94.55-1.31.37-.37.8-.55 1.31-.55.48 0 .91.18 1.28.55.37.37.55.8.55 1.31 0 .53-.18.97-.54 1.32-.36.36-.79.54-1.29.54-.52 0-.96-.18-1.32-.54m8.29-.69c-1.09-1.09-1.64-2.55-1.64-4.38v-10.66c0-1.81.55-3.26 1.64-4.35 1.09-1.09 2.55-1.64 4.35-1.64 1.83 0 3.3.55 4.4 1.64 1.1 1.09 1.66 2.55 1.66 4.35v10.66c0 1.83-.55 3.29-1.66 4.38-1.1 1.09-2.57 1.64-4.4 1.64-1.81 0-3.26-.55-4.35-1.64m7.13-1.39c.69-.71 1.04-1.66 1.04-2.84V304.4c0-1.18-.35-2.12-1.04-2.84-.69-.71-1.62-1.07-2.78-1.07-1.11 0-2.02.36-2.71 1.07-.69.72-1.04 1.66-1.04 2.84v10.94c0 1.16.35 2.1 1.04 2.82.69.73 1.6 1.09 2.71 1.09 1.16 0 2.08-.36 2.78-1.07m18.35-4.04c0 1.32-.18 2.41-.54 3.25-.4 1.22-1.02 2.15-1.88 2.79-.85.64-1.93.96-3.23.96-1.26 0-2.33-.32-3.22-.95s-1.51-1.52-1.89-2.68c-.4-.99-.6-2.1-.6-3.34v-10.09c0-1.68.52-3.02 1.56-4.02 1.04-1 2.39-1.5 4.05-1.5 1.58 0 2.86.49 3.85 1.48s1.48 2.29 1.48 3.91v.47c0 .21-.11.32-.32.32h-1.61c-.21 0-.32-.11-.32-.32v-.35c0-1.05-.29-1.9-.88-2.55-.59-.65-1.34-.98-2.24-.98-.97 0-1.77.33-2.4.99-.63.66-.95 1.55-.95 2.67v4.8c0 .06.02.1.06.11.04.01.07-.02.09-.08.82-1.24 2.05-1.86 3.69-1.86 2.27 0 3.81 1.11 4.6 3.34.48.87.7 2.07.7 3.63m-2.24-.06c0-.95-.09-1.78-.28-2.49-.19-.8-.56-1.43-1.12-1.89-.56-.46-1.25-.69-2.07-.69-.82 0-1.5.24-2.05.71-.55.47-.91 1.12-1.1 1.94-.17.59-.25 1.4-.25 2.43 0 .9.06 1.66.19 2.27.19.88.56 1.57 1.12 2.07.56.49 1.27.74 2.13.74.82 0 1.51-.25 2.08-.74.57-.49.96-1.21 1.17-2.16.12-.73.18-1.46.18-2.19m5.96 6.18c-.36-.36-.54-.8-.54-1.32 0-.5.18-.94.55-1.31.37-.37.8-.55 1.31-.55.48 0 .91.18 1.28.55.37.37.55.8.55 1.31 0 .53-.18.97-.54 1.32-.36.36-.79.54-1.29.54-.52 0-.96-.18-1.32-.54m6.86.31v-1.39c0-.13.04-.26.13-.41 1.89-2.57 4.01-5.51 6.34-8.83 1.66-2.42 2.49-4.35 2.49-5.8 0-1.09-.32-1.97-.95-2.63-.63-.66-1.46-.99-2.49-.99-1.01 0-1.82.33-2.43.99-.61.66-.9 1.54-.88 2.63v1.07c0 .21-.11.32-.32.32h-1.64c-.21 0-.32-.1-.32-.32v-1.26c.04-1.62.58-2.92 1.62-3.91 1.04-.99 2.38-1.48 4.02-1.48 1.68 0 3.04.52 4.07 1.55 1.03 1.03 1.55 2.38 1.55 4.04 0 1.85-.86 4.04-2.59 6.56-1.11 1.64-2.73 3.92-4.86 6.84l-.88 1.23c-.04.11-.01.16.09.16h8.58c.21 0 .32.11.32.32v1.32c0 .21-.11.32-.32.32h-11.23c-.2-.01-.3-.11-.3-.33m16.6-1c-1.09-1.09-1.64-2.55-1.64-4.38v-10.66c0-1.81.55-3.26 1.64-4.35 1.09-1.09 2.55-1.64 4.35-1.64 1.83 0 3.3.55 4.4 1.64 1.1 1.09 1.66 2.55 1.66 4.35v10.66c0 1.83-.55 3.29-1.66 4.38-1.1 1.09-2.57 1.64-4.4 1.64-1.81 0-3.26-.55-4.35-1.64m7.13-1.39c.69-.71 1.04-1.66 1.04-2.84V304.4c0-1.18-.35-2.12-1.04-2.84-.69-.71-1.62-1.07-2.78-1.07-1.11 0-2.02.36-2.71 1.07-.69.72-1.04 1.66-1.04 2.84v10.94c0 1.16.35 2.1 1.04 2.82.69.73 1.6 1.09 2.71 1.09 1.16 0 2.08-.36 2.78-1.07m10.33-19.37h1.7c.21 0 .32.11.32.32v21.45c0 .21-.11.32-.32.32h-1.61c-.21 0-.32-.1-.32-.32v-19.33c0-.04-.01-.07-.05-.09-.03-.02-.07-.02-.11 0l-3.03 1.29-.13.03c-.17 0-.25-.09-.25-.28v-1.14c0-.15.07-.27.22-.38l3.15-1.77c.12-.07.26-.1.43-.1m17.17 6.72v10.09c0 1.68-.52 3.02-1.56 4.02-1.04 1-2.39 1.5-4.05 1.5-1.58 0-2.86-.49-3.85-1.48-.99-.99-1.48-2.29-1.48-3.91v-.47c0-.21.1-.32.32-.32h1.61c.21 0 .32.11.32.32v.35c0 1.05.29 1.9.88 2.55.59.65 1.34.98 2.24.98.97 0 1.77-.33 2.4-.99.63-.66.94-1.55.94-2.67v-4.79c0-.06-.02-.1-.06-.11-.04-.01-.07.02-.09.08-.82 1.24-2.05 1.86-3.69 1.86-2.27 0-3.81-1.11-4.6-3.34-.44-.86-.66-2.07-.66-3.63 0-1.32.18-2.41.54-3.25.4-1.22 1.02-2.15 1.88-2.79.85-.64 1.93-.96 3.23-.96 1.26 0 2.33.32 3.22.95.88.63 1.52 1.52 1.89 2.68.37.98.57 2.09.57 3.33m-3.6 4.46c.55-.47.91-1.12 1.1-1.94.17-.59.25-1.4.25-2.43 0-.92-.06-1.68-.19-2.27-.19-.88-.56-1.57-1.12-2.07-.56-.49-1.26-.74-2.13-.74-.82 0-1.51.25-2.08.74-.57.49-.96 1.21-1.17 2.16-.13.72-.19 1.44-.19 2.18 0 .95.09 1.78.28 2.49.19.8.56 1.43 1.12 1.89.56.46 1.25.69 2.06.69.84.01 1.52-.22 2.07-.7m-88.77-93.82c-3.45 3.14-8.81 5.81-16.07 8.01 1.4 2.32 2.11 4.94 2.11 7.87 0 3.97-1.28 7.87-3.85 11.72-2.56 3.85-6.49 7.02-11.76 9.52-5.28 2.5-11.7 3.75-19.27 3.75-8.79 0-15.99-1.75-21.6-5.26-5.62-3.51-8.42-8.62-8.42-15.33 0-6.23 2.49-11.61 7.46-16.16 4.97-4.55 11.79-7.61 20.46-9.2-3.11-.85-5.42-2.07-6.91-3.66-1.5-1.59-2.24-3.39-2.24-5.4 0-3.36 1.74-5.95 5.22-7.78 3.48-1.83 7.63-2.75 12.45-2.75 3.97 0 6.91.63 8.83 1.88s2.88 2.95 2.88 5.08c0 1.95-.69 3.45-2.06 4.49s-2.88 1.56-4.53 1.56l-.09-1.65c1.28 0 2.37-.4 3.25-1.19.88-.79 1.33-1.77 1.33-2.93 0-1.1-.44-1.97-1.33-2.61-.89-.64-2.12-.96-3.71-.96-2.01 0-3.95.54-5.81 1.6-1.86 1.07-3.37 2.56-4.53 4.49-1.16 1.92-1.74 4.11-1.74 6.55 0 .92.09 1.83.28 2.75 2.2-.37 4.12-.55 5.77-.55 2.2 0 3.3.64 3.3 1.92 0 .61-.27 1.08-.82 1.42-.55.34-1.22.5-2.01.5-1.53 0-3.63-.67-6.32-2.01-2.69 1.22-4.93 3.68-6.73 7.37-1.8 3.69-2.7 7.74-2.7 12.13 0 5.62 1.63 9.87 4.9 12.77 3.26 2.9 8.04 4.35 14.33 4.35 4.09 0 7.97-.6 11.63-1.79 3.66-1.19 6.65-3.07 8.97-5.63 2.32-2.56 3.48-5.77 3.48-9.61 0-2.62-.58-4.88-1.74-6.77l-9.61 2.93c-2.2.61-5.43 1.59-9.7 2.93-2.75.79-4.74 1.76-6 2.88-1.25 1.13-1.88 2.49-1.88 4.07 0 1.59.55 2.72 1.65 3.39 1.1.67 2.44 1.01 4.03 1.01 2.38 0 4.43-.61 6.13-1.83 1.71-1.22 2.9-2.56 3.57-4.03l1.56.64c-.79 1.83-2.2 3.48-4.21 4.94-2.01 1.46-4.49 2.2-7.42 2.2-3.17 0-5.92-.94-8.24-2.84-2.32-1.89-3.48-4.73-3.48-8.51 0-3.84 1.37-7.22 4.12-10.12 2.75-2.9 6.9-5.17 12.45-6.82l24.26-7.32c2.75-.85 4.87-1.57 6.36-2.15s2.85-1.48 4.07-2.7c1.22-1.22 1.83-2.78 1.83-4.67 0-2.32-.87-4.13-2.61-5.45-1.74-1.31-3.89-1.97-6.45-1.97-.98 0-1.8.12-2.47.37 3.54 1.34 5.31 3.54 5.31 6.59 0 2.32-.98 4.16-2.93 5.54-1.95 1.37-4.18 2.06-6.68 2.06-2.44 0-4.44-.67-6-2.01-1.56-1.34-2.33-3.05-2.33-5.13 0-1.83.58-3.39 1.74-4.67 1.16-1.28 2.71-2.29 4.67-3.02 2.07-.85 4.73-1.28 7.96-1.28 8.73 0 13.09 4.46 13.09 13.37-.03 5.59-1.75 9.97-5.2 13.11M199.54 141.29h-1.57c.31-1.52.47-2.96.47-4.32 0-3.19-1-5.68-2.98-7.46-1.99-1.78-4.76-2.67-8.32-2.67-2.46 0-4.49.62-6.08 1.85-1.6 1.23-2.4 3.15-2.4 5.77 0 2.3.67 4.51 2 6.63s3.39 4.8 6.16 8.05c2.04 2.36 3.68 4.36 4.91 6.01 1.23 1.65 2.28 3.45 3.14 5.42.86 1.96 1.3 3.99 1.3 6.09 0 3.56-1.22 6.53-3.65 8.91-2.43 2.38-5.42 4.14-8.95 5.26-3.53 1.13-6.95 1.69-10.25 1.69-3.82 0-6.71-.26-8.68-.79-1.96-.52-4.15-1.46-6.56-2.83-1.36-.79-2.25-1.18-2.67-1.18-.68 0-1.23.27-1.65.82-.42.55-.99 1.69-1.73 3.42h-1.57c.84-1.99 1.66-4.38 2.47-7.18.81-2.8 1.77-6.69 2.87-11.66h1.57c-.47 1.31-.71 3.11-.71 5.42 0 4.03 1.11 7.07 3.34 9.11 2.22 2.04 5.38 3.06 9.46 3.06 3.4 0 5.78-.64 7.15-1.92 1.36-1.28 2.04-3.05 2.04-5.3 0-2.98-.67-5.7-2-8.17-1.33-2.46-3.34-5.34-6.01-8.64-2.57-3.19-4.5-5.97-5.81-8.32-1.31-2.36-1.96-4.92-1.96-7.69 0-3.45 1.06-6.39 3.18-8.79 2.12-2.41 4.76-4.2 7.93-5.38 3.17-1.18 6.35-1.77 9.54-1.77 2.25 0 4.27.21 6.05.63 1.78.42 3.08.8 3.89 1.14.81.34 2.13.96 3.97 1.85.26.11.69.31 1.3.63.6.31 1.03.47 1.29.47.42 0 .82-.33 1.22-.98.39-.65.85-1.71 1.37-3.18h1.57c-1.99 5.01-3.54 10.35-4.64 16m45.25 27.01h1.49l-2.2 6.12c-.99 2.78-2.49 4.82-4.47 6.12-1.99 1.31-4.24 1.96-6.75 1.96-3.45 0-5.78-1.02-6.99-3.06-.63-1.1-.94-2.36-.94-3.77 0-1.26.21-2.64.63-4.16l1.81-6.83c-1.99 4.82-3.91 8.51-5.77 11.07-1.86 2.57-3.74 4.33-5.65 5.3-1.91.97-4.1 1.45-6.56 1.45-2.36 0-4.18-.55-5.46-1.65-1.28-1.1-1.92-2.72-1.92-4.87 0-1.57.34-3.35 1.02-5.34l7.62-23.32c.26-.89.39-1.52.39-1.88 0-.94-.44-1.41-1.33-1.41-1.52 0-2.91 1.65-4.16 4.95l-1.65 4.4h-1.49l1.96-5.73c1.89-5.39 5.63-8.09 11.23-8.09 2.67 0 4.72.62 6.16 1.85 1.44 1.23 2.16 3.08 2.16 5.54 0 1.73-.39 3.77-1.18 6.12l-6.75 20.34c-.42 1.2-.63 2.23-.63 3.06 0 .79.26 1.18.79 1.18 1.26 0 2.87-1.58 4.83-4.75s3.99-7.3 6.09-12.41c2.09-5.1 3.95-10.38 5.57-15.82l1.02-4c5.7-.1 10.44-.47 14.21-1.1l-9.89 35.18c-.31.99-.47 1.75-.47 2.28 0 .68.39 1.02 1.18 1.02.84 0 1.6-.37 2.28-1.1.68-.73 1.36-2.01 2.04-3.85l1.78-4.8zm13.25 12.56c1.62 0 2.97-.54 4.04-1.61 1.07-1.07 1.61-2.52 1.61-4.36 0-1.67-.39-3.44-1.18-5.3-.79-1.86-1.91-3.99-3.38-6.4-1.73-2.77-2.94-4.95-3.65-6.52-.71-1.57-1.06-3.32-1.06-5.26 0-3.51 1.33-6.36 4-8.56s6.54-3.3 11.62-3.3c3.87 0 7.09.69 9.66 2.08 2.56 1.39 3.85 3.7 3.85 6.95 0 1.78-.5 3.39-1.49 4.83s-2.36 2.16-4.08 2.16c-1.57 0-2.8-.61-3.69-1.85-.89-1.23-1.33-2.81-1.33-4.75 0-1.52.25-2.94.75-4.28.5-1.33 1.09-2.37 1.77-3.1-.42-.21-1.07-.31-1.96-.31-1.83 0-3.22.54-4.16 1.61s-1.41 2.63-1.41 4.67c0 1.31.29 2.58.86 3.81.58 1.23 1.52 2.94 2.83 5.14l.94 1.57c1.73 2.98 2.94 5.41 3.65 7.26.71 1.86 1.06 3.65 1.06 5.38 0 2.2-.6 4.19-1.81 5.97-1.2 1.78-2.98 3.19-5.34 4.24s-5.21 1.57-8.56 1.57c-4.24 0-7.72-.77-10.44-2.32-2.72-1.54-4.08-4.12-4.08-7.73 0-1.99.48-3.65 1.45-4.99.97-1.33 2.26-2 3.89-2 1.52 0 2.75.63 3.69 1.88.94 1.26 1.41 2.93 1.41 5.03 0 1.47-.2 2.78-.59 3.93-.39 1.15-.93 2.49-1.61 4 .77.38 1.69.56 2.74.56m65.81-12.17h1.49l-1.96 5.73c-1.88 5.39-5.63 8.09-11.23 8.09-3.19 0-5.47-.92-6.83-2.75-.89-1.31-1.33-2.91-1.33-4.79 0-.58.03-1.02.08-1.33-1.26 3.19-2.88 5.47-4.87 6.83-1.99 1.36-4.35 2.04-7.07 2.04-3.25 0-5.68-.84-7.3-2.51s-2.43-4.11-2.43-7.3c0-4.92 1.32-9.97 3.97-15.15 2.64-5.18 5.94-9.47 9.89-12.88 3.95-3.4 7.73-5.1 11.35-5.1 2.98 0 4.6 1.49 4.87 4.48l1.02-3.3c5.08-.05 9.81-.44 14.21-1.18l-10.6 35.18c-.21.68-.31 1.31-.31 1.88 0 .94.42 1.41 1.26 1.41 1.52 0 2.91-1.65 4.16-4.95l1.63-4.4zm-21.59 5.97c1.1-1.67 2.36-4.68 3.77-9.03l5.65-18.84c.05-.26.08-.65.08-1.18 0-1.46-.5-2.2-1.49-2.2-1.47 0-3.26 1.52-5.38 4.55-2.12 3.04-3.94 6.86-5.46 11.46-1.52 4.61-2.28 9.13-2.28 13.58 0 1.52.13 2.59.39 3.22.26.63.73.94 1.41.94 1.11.01 2.21-.82 3.31-2.5m69.74-5.97h1.49l-1.96 5.73c-1.88 5.39-5.63 8.09-11.23 8.09-3.35 0-5.71-.94-7.07-2.83-.89-1.2-1.34-2.67-1.34-4.4 0-1.67.42-3.77 1.26-6.28l6.75-20.34c.42-1.2.63-2.22.63-3.06 0-.79-.26-1.18-.79-1.18-1.36 0-3.11 1.83-5.26 5.5-2.15 3.66-4.33 8.35-6.56 14.05-2.22 5.71-4.1 11.44-5.61 17.2v-.16l-.08.39h-13.9l9.58-34.08c.31-1.05.47-1.81.47-2.28 0-.68-.39-1.02-1.18-1.02-.84 0-1.6.37-2.28 1.1-.68.73-1.36 2.02-2.04 3.85l-1.81 4.79h-1.49l2.2-6.12c.99-2.77 2.36-4.82 4.08-6.12 1.73-1.31 3.95-1.96 6.67-1.96 2.93 0 5.04.68 6.32 2.04 1.28 1.36 1.92 3.14 1.92 5.34 0 1.2-.16 2.41-.47 3.61l-2.12 8.17c2.04-5.13 3.99-9.07 5.85-11.82 1.86-2.75 3.76-4.66 5.69-5.73 1.94-1.07 4.13-1.61 6.6-1.61 5.13 0 7.69 2.17 7.69 6.52 0 1.41-.34 3.19-1.02 5.34l-7.77 23.32c-.26.89-.39 1.52-.39 1.88 0 .94.44 1.41 1.33 1.41 1.52 0 2.91-1.65 4.16-4.95l1.68-4.39zm48.09 0h1.49l-1.96 5.73c-1.88 5.39-5.63 8.09-11.23 8.09-3.35 0-5.71-.94-7.07-2.83-.89-1.2-1.34-2.67-1.34-4.4 0-1.67.42-3.77 1.26-6.28l6.75-20.34c.42-1.2.63-2.22.63-3.06 0-.79-.26-1.18-.79-1.18-1.36 0-3.11 1.83-5.26 5.5-2.15 3.66-4.33 8.35-6.56 14.05-2.22 5.71-4.1 11.44-5.61 17.2v-.16l-.08.39h-13.9l9.58-34.08c.31-1.05.47-1.81.47-2.28 0-.68-.39-1.02-1.18-1.02-.84 0-1.6.37-2.28 1.1-.68.73-1.36 2.02-2.04 3.85l-1.81 4.79h-1.49l2.2-6.12c.99-2.77 2.36-4.82 4.08-6.12 1.73-1.31 3.95-1.96 6.67-1.96 2.93 0 5.04.68 6.32 2.04 1.28 1.36 1.92 3.14 1.92 5.34 0 1.2-.16 2.41-.47 3.61l-2.12 8.17c2.04-5.13 3.99-9.07 5.85-11.82 1.86-2.75 3.76-4.66 5.69-5.73 1.94-1.07 4.13-1.61 6.6-1.61 5.13 0 7.69 2.17 7.69 6.52 0 1.41-.34 3.19-1.02 5.34l-7.77 23.32c-.26.89-.39 1.52-.39 1.88 0 .94.44 1.41 1.33 1.41 1.52 0 2.91-1.65 4.16-4.95l1.68-4.39zM307 226.77c-1.31 3.45-2.3 6.54-2.98 9.27-.31 1.15-.66 2.78-1.02 4.87h-1.73c.05-4.5-.71-7.68-2.28-9.54-1.57-1.86-3.98-2.79-7.22-2.79h-.24c-1.83 0-3.21.14-4.12.43-.92.29-1.64.88-2.16 1.77-.52.89-1.05 2.33-1.57 4.32l-4.95 18.53h1.41c2.46 0 4.71-.86 6.75-2.59s3.53-3.79 4.48-6.2h1.73c-.84 2.57-1.55 5.05-2.12 7.46l-.55 2.12c-.37 1.41-.71 2.83-1.02 4.24-.31 1.41-.66 3.19-1.02 5.34h-1.73c0-2.25-.6-4.28-1.81-6.09-1.2-1.81-3.14-2.71-5.81-2.71h-.71l-5.03 18.84c-.47 1.99-.71 3.27-.71 3.85 0 1.1.38 1.82 1.14 2.16.76.34 2.11.51 4.04.51h1.02c3.77 0 6.95-1.03 9.54-3.1 2.59-2.07 5.14-5.67 7.66-10.8h1.73c-.42 1.15-.97 3.04-1.65 5.65-.89 3.09-1.57 6.44-2.04 10.05-3.56-.16-9.47-.24-17.74-.24-12.14 0-21.25.08-27.32.24l.31-1.57c1.88-.1 3.3-.31 4.24-.63.94-.31 1.69-.92 2.24-1.81.55-.89 1.09-2.33 1.61-4.32l10.36-38.94c.42-1.78.63-3.04.63-3.77 0-1.15-.38-1.91-1.14-2.28-.76-.37-2.13-.6-4.12-.71l.39-1.57c6.02.16 15.1.24 27.25.24 7.54.01 12.96-.07 16.26-.23m33.06 15.91c1.36 1.44 2.04 3.26 2.04 5.46 0 2.67-.84 4.97-2.51 6.91-1.68 1.94-3.8 2.91-6.36 2.91-1.94 0-3.4-.5-4.4-1.49-.99-.99-1.49-2.46-1.49-4.4 0-2.3.84-4.4 2.51-6.28 1.68-1.88 3.69-3.04 6.05-3.45-.63-.16-.99-.24-1.1-.24-1.68 0-3.19.34-4.56 1.02-1.36.68-2.87 2.36-4.51 5.03-1.65 2.67-3.39 6.75-5.22 12.25l-5.73 21.98h-13.9l9.58-34.08c.21-.79.32-1.46.32-2.04 0-.84-.34-1.26-1.02-1.26-.84 0-1.6.37-2.28 1.1-.68.73-1.36 2.02-2.04 3.85l-1.8 4.79h-1.49l2.2-6.12c1.94-5.39 5.84-8.09 11.7-8.09 2.51 0 4.34.68 5.5 2.04 1.15 1.36 1.73 3.11 1.73 5.26 0 .73-.03 1.28-.08 1.65 1.52-3.3 3.15-5.61 4.91-6.95 1.75-1.33 3.89-2 6.4-2 2.33-.01 4.18.71 5.55 2.15m11.77 3.65c0-.89-.37-1.33-1.1-1.33-.84 0-1.6.37-2.28 1.1-.68.73-1.36 2.02-2.04 3.85l-1.81 4.79h-1.49l2.2-6.12c1.94-5.39 5.84-8.09 11.7-8.09 2.83 0 4.89.68 6.2 2.04 1.31 1.36 1.96 3.09 1.96 5.18 0 1.15-.21 2.41-.63 3.77l-8.17 24.18c-.26.89-.39 1.52-.39 1.88 0 .94.44 1.41 1.33 1.41 1.52 0 2.91-1.65 4.16-4.95l1.65-4.4h1.49l-1.96 5.73c-1.89 5.39-5.63 8.09-11.23 8.09-2.67 0-4.74-.63-6.2-1.88-1.47-1.26-2.2-3.11-2.2-5.57 0-1.67.39-3.69 1.18-6.05l7.22-21.67c.28-.68.41-1.34.41-1.96m5.54-23.25c1.75-1.41 4.07-2.12 6.95-2.12 2.3 0 4.04.45 5.22 1.33 1.18.89 1.77 2.23 1.77 4 0 2.41-.92 4.37-2.75 5.89-1.83 1.52-4.14 2.28-6.91 2.28-2.25 0-3.97-.44-5.14-1.33-1.18-.89-1.77-2.17-1.77-3.85 0-2.71.87-4.78 2.63-6.2m42.19 23.56c1.33-1.52 3-2.72 4.99-3.61-.21-.31-.5-.56-.86-.75-.37-.18-.73-.27-1.1-.27-1.41 0-2.62.42-3.61 1.26-.68.58-1.24 1.32-1.69 2.24-.45.92-.98 2.24-1.61 3.97-.99 2.83-2 5.05-3.02 6.67s-2.58 2.72-4.67 3.3c9.58.11 14.37 3.06 14.37 8.87 0 .99-.11 1.94-.31 2.83l-.94 4.55c-.16.68-.24 1.26-.24 1.73 0 1.05.39 1.57 1.18 1.57 1.52 0 2.91-1.65 4.16-4.95l1.65-4.4h1.49l-1.96 5.73c-1.99 5.39-6.18 8.09-12.56 8.09-2.57 0-4.48-.59-5.73-1.77-1.26-1.18-1.88-2.87-1.88-5.06 0-.89.13-1.99.39-3.3l1.33-5.57c.37-1.26.55-2.38.55-3.38 0-1.15-.3-2.05-.9-2.71-.6-.65-1.56-1.14-2.87-1.45l-6.52 22.14h-13.9L380.85 230c.26-.94.39-1.67.39-2.2 0-1.05-.41-1.81-1.22-2.28-.81-.47-2.19-.71-4.12-.71l.55-1.65c4.13-.05 7.88-.34 11.23-.86a61.5 61.5 0 0 0 9.81-2.36l-11.39 38.79c1.62-.37 2.96-1.03 4-2 1.05-.97 1.85-2.03 2.39-3.18.55-1.15 1.14-2.67 1.77-4.55.58-1.67 1.11-3.04 1.61-4.08.5-1.05 1.14-1.91 1.92-2.59.73-.63 1.56-1.09 2.47-1.37.92-.29 1.77-.43 2.55-.43 2.88 0 5.1.85 6.67 2.55 1.57 1.7 2.36 3.84 2.36 6.4 0 2.46-.75 4.4-2.24 5.81-1.49 1.41-3.39 2.12-5.69 2.12-1.99 0-3.55-.51-4.67-1.53-1.13-1.02-1.69-2.32-1.69-3.89 0-2.05.67-3.83 2.01-5.35"/>
    <linearGradient id="a" gradientUnits="userSpaceOnUse" x1="110.974" y1="78.303" x2="477.232" y2="289.762">
        <stop offset=".049" stop-color="#dea5b6"/>
        <stop offset=".908" stop-color="#94535d"/>
    </linearGradient>
    <path d="M401.22 306.73L538.41 183.8l-67.05-78.36-57.81-86.6-71.17 62.81L294.42 114l-48.93-33.26-69.73-64.75-53.78 84.52-71.86 83.21 133.22 118.62L294.6 418.47l106.62-111.74zm-110.35 97.36l3.5-3.09 3.38 3.01-3.48 3.48-3.4-3.4zm6.91-.11l-3.3-3.08 54.69-48.25-51.39 51.33zm226.75-216.31l-83.31 77.13 79.18-82.98 4.13 5.85zm-3.9-6.08l3.32-3.48 4.62 5.82-4.02 3.72-3.92-6.06zm3.3-3.49l-3.38 3.38-26.74-41.33 30.12 37.95zM444.3 74.05l-33.13-38.46 3.9-2.94 29.23 41.4zm-29.25-41.42l-4.07 2.75-3.52-4.08 4.17-3.5 3.42 4.83zm-7.61-1.31l3.33 4.2-42.56 28.71 39.23-32.91zm-112.86 94.22l14.15-12.67-14.3 15.27 29.27-26.56 87.26-65.82 57.15 72.02 52.21 73.94-135.21 135.04-90.75 84.02-99.4-92.79L70.03 182.82l60.05-86.57 48.4-60.7 84.83 64.49 31.11 28.1-15.62-15.56 15.78 12.96zM178.66 35.33l3.01-3.77 36.55 30.66-39.56-26.89zM177.43 28l4.16 3.49-3.17 3.68-4.05-2.75 3.06-4.42zm-3.07 4.42l3.88 2.95-30.07 34.82 26.19-37.77zM69.83 182.62l-4.79-4.8 38.49-48.27-33.7 53.07zm-.1.15l-3.31 5.22-5.44-5.08 4.05-5.08 4.7 4.94zm-3.3 5.24l3.49-5.03 69.71 73.37-73.2-68.34zm227.81 212.88l-3.41 3.16-54.61-54.72 58.02 51.56z" fill="url(#a)"/>
</svg>
